<svg id="svg" version="1.1" xmlns="http://www.w3.org/2000/svg" xmlns:xlink="http://www.w3.org/1999/xlink" width="400" height="147.66666666666666" viewBox="0, 0, 400,147.66666666666666"><g id="svgg"><path id="path0" d="M0.093 1.542 C 0.158 2.390,0.277 3.108,0.356 3.139 C 0.435 3.169,0.500 3.596,0.500 4.087 C 0.500 4.579,0.575 5.027,0.667 5.083 C 0.758 5.140,0.833 5.557,0.833 6.010 C 0.833 6.463,0.908 6.833,1.000 6.833 C 1.092 6.833,1.167 7.241,1.167 7.740 C 1.167 8.239,1.242 8.693,1.333 8.750 C 1.425 8.807,1.500 9.219,1.500 9.667 C 1.500 10.114,1.575 10.527,1.667 10.583 C 1.758 10.640,1.833 11.094,1.833 11.593 C 1.833 12.092,1.908 12.500,2.000 12.500 C 2.093 12.500,2.167 12.944,2.167 13.500 C 2.167 14.056,2.241 14.500,2.333 14.500 C 2.425 14.500,2.500 14.871,2.500 15.323 C 2.500 15.776,2.575 16.193,2.667 16.250 C 2.758 16.307,2.833 16.761,2.833 17.260 C 2.833 17.759,2.908 18.167,3.000 18.167 C 3.092 18.167,3.167 18.575,3.167 19.073 C 3.167 19.572,3.242 20.027,3.333 20.083 C 3.425 20.140,3.500 20.519,3.500 20.927 C 3.500 21.334,3.575 21.667,3.667 21.667 C 3.759 21.667,3.833 22.108,3.833 22.657 C 3.833 23.201,3.908 23.693,4.000 23.750 C 4.092 23.807,4.167 24.219,4.167 24.667 C 4.167 25.114,4.242 25.527,4.333 25.583 C 4.425 25.640,4.500 26.088,4.500 26.579 C 4.500 27.070,4.576 27.498,4.669 27.528 C 4.762 27.559,4.846 27.980,4.857 28.463 C 4.868 28.946,4.942 29.381,5.022 29.430 C 5.102 29.479,5.167 29.875,5.167 30.310 C 5.167 30.744,5.237 31.171,5.324 31.258 C 5.410 31.345,5.498 31.807,5.520 32.283 C 5.541 32.760,5.621 33.112,5.696 33.065 C 5.772 33.019,5.833 33.360,5.833 33.823 C 5.833 34.893,5.832 34.880,6.020 35.107 C 6.107 35.212,6.185 35.643,6.194 36.066 C 6.202 36.488,6.274 36.833,6.354 36.833 C 6.435 36.833,6.500 37.241,6.500 37.740 C 6.500 38.239,6.575 38.693,6.667 38.750 C 6.758 38.807,6.833 39.134,6.833 39.477 C 6.833 39.819,6.927 40.201,7.042 40.324 C 7.211 40.507,7.203 40.524,7.000 40.417 C 6.797 40.309,6.789 40.327,6.958 40.509 C 7.073 40.632,7.167 41.125,7.167 41.603 C 7.167 42.081,7.243 42.498,7.335 42.528 C 7.428 42.559,7.513 42.980,7.524 43.463 C 7.535 43.946,7.609 44.381,7.689 44.430 C 7.768 44.479,7.833 44.886,7.833 45.333 C 7.833 45.781,7.908 46.193,8.000 46.250 C 8.092 46.307,8.167 46.761,8.167 47.260 C 8.167 47.759,8.242 48.167,8.333 48.167 C 8.425 48.167,8.500 48.489,8.500 48.883 C 8.500 49.278,8.575 49.675,8.667 49.767 C 8.758 49.858,8.843 50.361,8.855 50.883 C 8.867 51.406,8.942 51.833,9.022 51.833 C 9.102 51.833,9.167 52.283,9.167 52.833 C 9.167 53.389,9.241 53.833,9.333 53.833 C 9.425 53.833,9.500 54.118,9.500 54.467 C 9.500 54.815,9.594 55.201,9.708 55.324 C 9.878 55.507,9.870 55.524,9.667 55.417 C 9.464 55.309,9.456 55.327,9.625 55.509 C 9.740 55.632,9.833 56.131,9.833 56.617 C 9.833 57.103,9.908 57.500,10.000 57.500 C 10.092 57.500,10.167 57.871,10.167 58.323 C 10.167 58.776,10.242 59.193,10.333 59.250 C 10.425 59.307,10.500 59.757,10.500 60.250 C 10.500 60.743,10.575 61.193,10.667 61.250 C 10.758 61.307,10.833 61.761,10.833 62.260 C 10.833 62.759,10.908 63.167,11.000 63.167 C 11.092 63.167,11.167 63.606,11.167 64.153 C 11.167 64.695,11.241 65.164,11.333 65.194 C 11.424 65.225,11.511 65.587,11.526 66.000 C 11.540 66.412,11.621 66.795,11.705 66.851 C 11.789 66.906,11.857 67.375,11.857 67.892 C 11.857 68.410,11.927 68.833,12.012 68.833 C 12.097 68.833,12.167 69.241,12.167 69.740 C 12.167 70.239,12.242 70.693,12.333 70.750 C 12.425 70.807,12.500 71.171,12.500 71.560 C 12.500 71.949,12.571 72.338,12.658 72.425 C 12.745 72.512,12.832 72.921,12.852 73.333 C 12.872 73.746,12.958 74.175,13.043 74.286 C 13.129 74.398,13.196 74.869,13.192 75.332 C 13.188 75.819,13.252 76.134,13.343 76.077 C 13.434 76.021,13.500 76.388,13.500 76.957 C 13.500 77.494,13.571 78.005,13.657 78.092 C 13.744 78.179,13.831 78.662,13.852 79.167 C 13.873 79.671,13.949 80.123,14.021 80.172 C 14.092 80.220,14.168 80.558,14.187 80.922 C 14.207 81.286,14.288 81.669,14.367 81.773 C 14.445 81.877,14.522 82.365,14.538 82.856 C 14.554 83.348,14.622 83.789,14.690 83.837 C 14.758 83.885,14.833 84.283,14.855 84.722 C 14.878 85.161,14.957 85.557,15.032 85.603 C 15.106 85.649,15.167 86.015,15.167 86.417 C 15.167 86.818,15.242 87.193,15.333 87.250 C 15.425 87.307,15.500 87.634,15.500 87.977 C 15.500 88.319,15.594 88.701,15.708 88.824 C 15.875 89.004,15.875 89.025,15.708 88.931 C 15.463 88.793,15.423 89.099,15.667 89.250 C 15.758 89.307,15.833 89.766,15.833 90.270 C 15.833 90.838,15.897 91.147,16.000 91.083 C 16.104 91.019,16.167 91.348,16.167 91.957 C 16.167 92.494,16.239 93.006,16.328 93.094 C 16.416 93.183,16.503 93.686,16.520 94.211 C 16.537 94.737,16.615 95.167,16.692 95.167 C 16.770 95.167,16.833 95.504,16.833 95.917 C 16.833 96.329,16.908 96.667,17.000 96.667 C 17.094 96.667,17.167 97.139,17.167 97.750 C 17.167 98.361,17.239 98.833,17.333 98.833 C 17.425 98.833,17.500 99.241,17.500 99.740 C 17.500 100.239,17.575 100.693,17.667 100.750 C 17.758 100.807,17.833 101.224,17.833 101.677 C 17.833 102.129,17.908 102.500,18.000 102.500 C 18.092 102.500,18.167 102.908,18.167 103.407 C 18.167 103.906,18.242 104.360,18.333 104.417 C 18.425 104.473,18.500 104.890,18.500 105.343 C 18.500 105.796,18.575 106.167,18.667 106.167 C 18.758 106.167,18.833 106.575,18.833 107.073 C 18.833 107.572,18.908 108.027,19.000 108.083 C 19.092 108.140,19.167 108.552,19.167 109.000 C 19.167 109.448,19.242 109.860,19.333 109.917 C 19.425 109.973,19.500 110.428,19.500 110.927 C 19.500 111.425,19.575 111.833,19.667 111.833 C 19.759 111.833,19.833 112.278,19.833 112.833 C 19.833 113.389,19.907 113.833,20.000 113.833 C 20.092 113.833,20.167 114.204,20.167 114.657 C 20.167 115.110,20.242 115.527,20.333 115.583 C 20.425 115.640,20.500 116.094,20.500 116.593 C 20.500 117.092,20.575 117.500,20.667 117.500 C 20.758 117.500,20.833 117.908,20.833 118.407 C 20.833 118.906,20.908 119.360,21.000 119.417 C 21.092 119.473,21.167 119.853,21.167 120.260 C 21.167 120.667,21.242 121.000,21.333 121.000 C 21.426 121.000,21.500 121.441,21.500 121.990 C 21.500 122.535,21.575 123.027,21.667 123.083 C 21.758 123.140,21.833 123.519,21.833 123.927 C 21.833 124.334,21.896 124.667,21.973 124.667 C 22.049 124.667,22.128 125.135,22.149 125.708 C 22.169 126.281,22.256 126.775,22.343 126.806 C 22.429 126.836,22.500 127.263,22.500 127.754 C 22.500 128.245,22.575 128.693,22.667 128.750 C 22.758 128.807,22.833 129.209,22.833 129.643 C 22.833 130.078,22.904 130.505,22.990 130.592 C 23.077 130.679,23.165 131.140,23.187 131.617 C 23.208 132.093,23.287 132.445,23.363 132.398 C 23.438 132.352,23.500 132.693,23.500 133.157 C 23.500 134.226,23.498 134.214,23.687 134.441 C 23.774 134.546,23.852 134.977,23.860 135.399 C 23.869 135.821,23.941 136.167,24.021 136.167 C 24.101 136.167,24.167 136.575,24.167 137.073 C 24.167 137.572,24.242 138.027,24.333 138.083 C 24.425 138.140,24.500 138.552,24.500 139.000 C 24.500 139.448,24.575 139.860,24.667 139.917 C 24.758 139.973,24.833 140.421,24.833 140.913 C 24.833 141.404,24.909 141.831,25.002 141.862 C 25.095 141.893,25.180 142.313,25.191 142.796 C 25.201 143.279,25.276 143.714,25.355 143.764 C 25.435 143.813,25.500 144.209,25.500 144.643 C 25.500 145.078,25.571 145.505,25.657 145.592 C 25.744 145.679,25.832 146.140,25.853 146.617 C 25.875 147.093,25.954 147.445,26.029 147.398 C 26.105 147.352,26.167 147.394,26.167 147.491 C 26.167 147.616,29.697 147.656,37.958 147.626 L 49.750 147.583 49.800 146.625 C 49.827 146.098,49.921 145.667,50.008 145.667 C 50.095 145.667,50.167 145.334,50.167 144.927 C 50.167 144.519,50.242 144.140,50.333 144.083 C 50.425 144.027,50.500 143.572,50.500 143.073 C 50.500 142.575,50.575 142.167,50.667 142.167 C 50.758 142.167,50.833 141.759,50.833 141.260 C 50.833 140.761,50.908 140.307,51.000 140.250 C 51.092 140.193,51.167 139.781,51.167 139.333 C 51.167 138.886,51.232 138.479,51.311 138.430 C 51.391 138.381,51.465 137.946,51.476 137.463 C 51.487 136.980,51.572 136.559,51.665 136.528 C 51.757 136.498,51.833 136.108,51.833 135.663 C 51.833 135.217,51.908 134.807,52.000 134.750 C 52.092 134.693,52.167 134.239,52.167 133.740 C 52.167 133.241,52.242 132.833,52.333 132.833 C 52.426 132.833,52.500 132.389,52.500 131.833 C 52.500 131.278,52.574 130.833,52.667 130.833 C 52.758 130.833,52.833 130.425,52.833 129.927 C 52.833 129.428,52.908 128.973,53.000 128.917 C 53.092 128.860,53.167 128.448,53.167 128.000 C 53.167 127.552,53.242 127.140,53.333 127.083 C 53.425 127.027,53.500 126.572,53.500 126.073 C 53.500 125.575,53.565 125.167,53.646 125.167 C 53.726 125.167,53.798 124.816,53.807 124.388 C 53.815 123.960,53.887 123.566,53.966 123.513 C 54.045 123.460,54.127 123.004,54.148 122.500 C 54.169 121.996,54.256 121.512,54.343 121.425 C 54.429 121.338,54.500 120.869,54.500 120.383 C 54.500 119.898,54.575 119.500,54.667 119.500 C 54.758 119.500,54.833 119.129,54.833 118.677 C 54.833 118.224,54.895 117.815,54.970 117.769 C 55.045 117.722,55.124 117.287,55.146 116.800 C 55.167 116.314,55.256 115.892,55.343 115.861 C 55.429 115.831,55.500 115.404,55.500 114.913 C 55.500 114.421,55.572 113.975,55.660 113.921 C 55.749 113.866,55.814 113.487,55.806 113.078 C 55.798 112.669,55.865 112.241,55.956 112.126 C 56.046 112.011,56.132 111.542,56.146 111.083 C 56.160 110.625,56.246 110.225,56.336 110.194 C 56.426 110.164,56.500 109.775,56.500 109.329 C 56.500 108.884,56.575 108.473,56.667 108.417 C 56.758 108.360,56.833 107.906,56.833 107.407 C 56.833 106.908,56.908 106.500,57.000 106.500 C 57.093 106.500,57.167 106.056,57.167 105.500 C 57.167 104.944,57.241 104.500,57.333 104.500 C 57.425 104.500,57.500 104.092,57.500 103.593 C 57.500 103.094,57.575 102.640,57.667 102.583 C 57.758 102.527,57.833 102.114,57.833 101.667 C 57.833 101.219,57.901 100.811,57.984 100.760 C 58.067 100.709,58.138 100.281,58.141 99.809 C 58.145 99.338,58.227 98.873,58.324 98.776 C 58.421 98.679,58.500 98.284,58.500 97.897 C 58.500 97.491,58.588 97.159,58.708 97.110 C 58.866 97.046,58.855 96.978,58.667 96.833 C 58.478 96.688,58.468 96.621,58.625 96.557 C 58.741 96.510,58.833 96.187,58.833 95.829 C 58.833 95.476,58.908 95.140,59.000 95.083 C 59.092 95.027,59.167 94.572,59.167 94.073 C 59.167 93.575,59.232 93.167,59.312 93.167 C 59.392 93.167,59.465 92.817,59.473 92.389 C 59.482 91.961,59.566 91.534,59.661 91.439 C 59.756 91.344,59.833 90.869,59.833 90.383 C 59.833 89.897,59.908 89.500,60.000 89.500 C 60.094 89.500,60.167 89.024,60.167 88.407 C 60.167 87.720,60.229 87.352,60.333 87.417 C 60.470 87.501,60.610 86.029,60.520 85.458 C 60.509 85.390,60.575 85.333,60.667 85.333 C 60.758 85.333,60.833 84.996,60.833 84.583 C 60.833 84.171,60.908 83.833,61.000 83.833 C 61.092 83.833,61.167 83.425,61.167 82.927 C 61.167 82.428,61.242 81.973,61.333 81.917 C 61.425 81.860,61.500 81.443,61.500 80.990 C 61.500 80.537,61.575 80.167,61.667 80.167 C 61.759 80.167,61.833 79.722,61.833 79.167 C 61.833 78.611,61.907 78.167,62.000 78.167 C 62.092 78.167,62.167 77.796,62.167 77.343 C 62.167 76.890,62.242 76.473,62.333 76.417 C 62.425 76.360,62.500 75.910,62.500 75.417 C 62.500 74.923,62.575 74.473,62.667 74.417 C 62.758 74.360,62.833 73.906,62.833 73.407 C 62.833 72.908,62.908 72.500,63.000 72.500 C 63.092 72.500,63.167 72.092,63.167 71.593 C 63.167 71.094,63.242 70.640,63.333 70.583 C 63.425 70.527,63.500 70.114,63.500 69.667 C 63.500 69.219,63.575 68.807,63.667 68.750 C 63.758 68.693,63.833 68.239,63.833 67.740 C 63.833 67.241,63.898 66.833,63.978 66.833 C 64.058 66.833,64.133 66.402,64.145 65.875 C 64.157 65.348,64.242 64.892,64.333 64.861 C 64.425 64.831,64.500 64.441,64.500 63.996 C 64.500 63.551,64.575 63.140,64.667 63.083 C 64.758 63.027,64.833 62.572,64.833 62.073 C 64.833 61.575,64.908 61.167,65.000 61.167 C 65.092 61.167,65.167 60.796,65.167 60.343 C 65.167 59.890,65.242 59.473,65.333 59.417 C 65.425 59.360,65.500 58.864,65.500 58.314 C 65.500 57.764,65.562 57.352,65.637 57.398 C 65.713 57.445,65.792 57.093,65.813 56.617 C 65.835 56.140,65.923 55.679,66.010 55.592 C 66.096 55.505,66.167 55.078,66.167 54.643 C 66.167 54.209,66.232 53.813,66.311 53.764 C 66.391 53.714,66.465 53.284,66.476 52.807 C 66.487 52.330,66.556 51.897,66.631 51.845 C 66.705 51.793,66.787 51.413,66.813 51.000 C 66.839 50.587,66.929 50.179,67.013 50.092 C 67.098 50.005,67.167 49.536,67.167 49.050 C 67.167 48.564,67.242 48.167,67.333 48.167 C 67.426 48.167,67.500 47.722,67.500 47.167 C 67.500 46.611,67.574 46.167,67.667 46.167 C 67.758 46.167,67.833 45.759,67.833 45.260 C 67.833 44.761,67.908 44.307,68.000 44.250 C 68.092 44.193,68.167 43.781,68.167 43.333 C 68.167 42.886,68.242 42.473,68.333 42.417 C 68.425 42.360,68.500 41.906,68.500 41.407 C 68.500 40.908,68.565 40.500,68.645 40.500 C 68.724 40.500,68.799 40.069,68.812 39.542 C 68.824 39.015,68.909 38.558,69.000 38.528 C 69.092 38.497,69.167 38.108,69.167 37.663 C 69.167 37.217,69.242 36.807,69.333 36.750 C 69.425 36.693,69.500 36.201,69.500 35.657 C 69.500 35.108,69.574 34.667,69.667 34.667 C 69.758 34.667,69.833 34.334,69.833 33.927 C 69.833 33.519,69.908 33.140,70.000 33.083 C 70.092 33.027,70.167 32.530,70.167 31.980 C 70.167 31.430,70.228 31.019,70.304 31.065 C 70.379 31.112,70.459 30.760,70.480 30.283 C 70.502 29.807,70.590 29.345,70.676 29.258 C 70.763 29.171,70.833 28.744,70.833 28.310 C 70.833 27.875,70.898 27.479,70.978 27.430 C 71.058 27.381,71.132 26.946,71.143 26.463 C 71.154 25.980,71.238 25.559,71.331 25.528 C 71.424 25.498,71.500 25.108,71.500 24.663 C 71.500 24.217,71.575 23.807,71.667 23.750 C 71.758 23.693,71.833 23.239,71.833 22.740 C 71.833 22.241,71.901 21.833,71.983 21.833 C 72.065 21.833,72.137 21.403,72.144 20.877 C 72.150 20.351,72.233 19.895,72.328 19.863 C 72.422 19.831,72.500 19.404,72.500 18.913 C 72.500 18.421,72.575 17.973,72.667 17.917 C 72.758 17.860,72.833 17.448,72.833 17.000 C 72.833 16.552,72.901 16.145,72.983 16.094 C 73.065 16.043,73.137 15.581,73.143 15.067 C 73.149 14.553,73.217 14.046,73.294 13.941 C 73.371 13.836,73.456 13.487,73.484 13.167 C 73.511 12.846,73.620 12.527,73.725 12.458 C 73.863 12.368,73.846 12.283,73.667 12.154 C 73.478 12.019,73.468 11.954,73.625 11.890 C 73.741 11.843,73.833 11.521,73.833 11.163 C 73.833 10.809,73.908 10.473,74.000 10.417 C 74.092 10.360,74.167 9.906,74.167 9.407 C 74.167 8.908,74.242 8.500,74.333 8.500 C 74.425 8.500,74.500 8.129,74.500 7.677 C 74.500 7.224,74.561 6.815,74.636 6.769 C 74.712 6.722,74.791 6.287,74.813 5.800 C 74.835 5.314,74.923 4.845,75.010 4.758 C 75.096 4.671,75.167 4.244,75.167 3.810 C 75.167 3.375,75.229 2.981,75.306 2.934 C 75.383 2.886,75.459 2.491,75.475 2.054 C 75.492 1.618,75.579 1.187,75.669 1.097 C 75.760 1.007,75.833 0.723,75.833 0.467 L 75.833 0.000 64.333 0.000 L 52.833 0.000 52.833 0.917 C 52.833 1.421,52.771 1.833,52.695 1.833 C 52.619 1.833,52.540 2.262,52.518 2.787 C 52.497 3.311,52.422 3.817,52.352 3.912 C 52.282 4.006,52.210 4.528,52.192 5.071 C 52.174 5.614,52.090 6.142,52.005 6.244 C 51.920 6.347,51.853 6.905,51.855 7.485 C 51.858 8.065,51.779 8.621,51.680 8.720 C 51.581 8.819,51.500 9.293,51.500 9.773 C 51.500 10.254,51.425 10.693,51.333 10.750 C 51.242 10.807,51.167 11.332,51.167 11.917 C 51.167 12.502,51.092 13.027,51.000 13.083 C 50.908 13.140,50.833 13.632,50.833 14.177 C 50.833 14.726,50.759 15.167,50.667 15.167 C 50.573 15.167,50.500 15.636,50.500 16.240 C 50.500 16.831,50.425 17.360,50.333 17.417 C 50.242 17.473,50.167 17.961,50.167 18.500 C 50.167 19.039,50.104 19.519,50.028 19.566 C 49.951 19.614,49.872 20.124,49.851 20.701 C 49.831 21.278,49.743 21.821,49.657 21.908 C 49.571 21.995,49.501 22.145,49.503 22.242 C 49.504 22.338,49.586 22.304,49.685 22.167 C 49.828 21.968,49.838 21.985,49.736 22.250 C 49.665 22.433,49.576 22.940,49.538 23.375 C 49.499 23.810,49.400 24.167,49.317 24.167 C 49.234 24.167,49.167 24.687,49.167 25.323 C 49.167 25.960,49.092 26.527,49.000 26.583 C 48.908 26.640,48.833 27.090,48.833 27.583 C 48.833 28.077,48.768 28.521,48.689 28.570 C 48.609 28.619,48.533 29.126,48.520 29.696 C 48.507 30.266,48.427 30.776,48.341 30.829 C 48.255 30.882,48.188 31.333,48.192 31.832 C 48.196 32.348,48.120 32.765,48.016 32.800 C 47.907 32.836,47.833 33.322,47.833 34.004 C 47.833 34.633,47.758 35.193,47.667 35.250 C 47.575 35.307,47.500 35.911,47.500 36.593 C 47.500 37.309,47.430 37.833,47.333 37.833 C 47.242 37.833,47.167 38.241,47.167 38.740 C 47.167 39.239,47.092 39.693,47.000 39.750 C 46.908 39.807,46.833 40.299,46.833 40.843 C 46.833 41.392,46.759 41.833,46.667 41.833 C 46.571 41.833,46.500 42.333,46.500 43.000 C 46.500 43.642,46.438 44.167,46.362 44.167 C 46.286 44.167,46.206 44.596,46.185 45.120 C 46.164 45.644,46.089 46.151,46.019 46.245 C 45.949 46.339,45.876 46.861,45.858 47.404 C 45.840 47.947,45.756 48.475,45.671 48.578 C 45.587 48.680,45.519 49.223,45.522 49.784 C 45.525 50.346,45.446 50.957,45.347 51.142 C 45.248 51.327,45.167 51.816,45.167 52.229 C 45.167 52.642,45.092 53.027,45.000 53.083 C 44.908 53.140,44.833 53.665,44.833 54.250 C 44.833 54.835,44.758 55.360,44.667 55.417 C 44.575 55.473,44.500 56.007,44.500 56.603 C 44.500 57.199,44.437 57.648,44.360 57.600 C 44.284 57.553,44.204 57.979,44.184 58.549 C 44.164 59.118,44.077 59.655,43.990 59.742 C 43.904 59.829,43.833 60.331,43.833 60.857 C 43.833 61.383,43.758 61.860,43.667 61.917 C 43.575 61.973,43.500 62.498,43.500 63.083 C 43.500 63.668,43.435 64.187,43.355 64.236 C 43.276 64.286,43.200 64.792,43.187 65.362 C 43.174 65.933,43.103 66.440,43.029 66.491 C 42.954 66.542,42.874 66.996,42.851 67.500 C 42.828 68.004,42.739 68.488,42.654 68.575 C 42.569 68.662,42.500 69.201,42.500 69.773 C 42.500 70.346,42.435 70.854,42.355 70.903 C 42.275 70.953,42.199 71.495,42.186 72.108 C 42.172 72.721,42.096 73.303,42.015 73.403 C 41.935 73.502,41.866 73.919,41.861 74.330 C 41.857 74.741,41.774 75.103,41.677 75.136 C 41.575 75.169,41.500 75.681,41.500 76.337 C 41.500 76.966,41.425 77.527,41.333 77.583 C 41.242 77.640,41.167 78.165,41.167 78.750 C 41.167 79.335,41.092 79.860,41.000 79.917 C 40.908 79.973,40.833 80.461,40.833 81.000 C 40.833 81.539,40.758 82.027,40.667 82.083 C 40.575 82.140,40.500 82.632,40.500 83.177 C 40.500 83.726,40.426 84.167,40.333 84.167 C 40.238 84.167,40.167 84.667,40.167 85.333 C 40.167 86.000,40.095 86.500,40.000 86.500 C 39.908 86.500,39.833 86.941,39.833 87.490 C 39.833 88.035,39.758 88.527,39.667 88.583 C 39.575 88.640,39.500 89.165,39.500 89.750 C 39.500 90.335,39.428 90.858,39.340 90.913 C 39.251 90.967,39.183 91.490,39.187 92.073 C 39.192 92.657,39.114 93.287,39.014 93.473 C 38.915 93.659,38.833 94.149,38.833 94.563 C 38.833 94.976,38.758 95.360,38.667 95.417 C 38.575 95.473,38.500 95.961,38.500 96.500 C 38.500 97.039,38.417 97.532,38.316 97.594 C 38.187 97.674,38.200 97.752,38.357 97.852 C 38.524 97.957,38.528 97.996,38.375 97.997 C 38.232 97.999,38.167 98.311,38.167 98.990 C 38.167 99.559,38.085 100.031,37.974 100.099 C 37.865 100.167,37.827 100.146,37.886 100.050 C 37.943 99.958,37.882 99.740,37.750 99.566 C 37.615 99.389,37.508 98.871,37.505 98.385 C 37.502 97.909,37.425 97.473,37.333 97.417 C 37.242 97.360,37.167 96.798,37.167 96.167 C 37.167 95.536,37.092 94.973,37.000 94.917 C 36.908 94.860,36.833 94.383,36.833 93.857 C 36.833 93.331,36.761 92.828,36.673 92.739 C 36.584 92.651,36.493 92.105,36.470 91.527 C 36.448 90.949,36.370 90.439,36.298 90.395 C 36.226 90.350,36.167 89.835,36.167 89.250 C 36.167 88.665,36.092 88.140,36.000 88.083 C 35.908 88.027,35.833 87.539,35.833 87.000 C 35.833 86.461,35.758 85.973,35.667 85.917 C 35.575 85.860,35.500 85.335,35.500 84.750 C 35.500 84.165,35.425 83.640,35.333 83.583 C 35.242 83.527,35.167 83.050,35.167 82.523 C 35.167 81.997,35.094 81.494,35.006 81.406 C 34.918 81.318,34.827 80.772,34.804 80.194 C 34.781 79.616,34.703 79.106,34.631 79.061 C 34.559 79.017,34.500 78.502,34.500 77.917 C 34.500 77.332,34.425 76.807,34.333 76.750 C 34.242 76.693,34.167 76.206,34.167 75.667 C 34.167 75.127,34.092 74.640,34.000 74.583 C 33.908 74.527,33.833 74.002,33.833 73.417 C 33.833 72.832,33.758 72.307,33.667 72.250 C 33.575 72.193,33.500 71.716,33.500 71.190 C 33.500 70.664,33.428 70.161,33.339 70.073 C 33.251 69.984,33.160 69.439,33.137 68.860 C 33.114 68.282,33.037 67.773,32.964 67.728 C 32.892 67.683,32.833 67.168,32.833 66.583 C 32.833 65.998,32.758 65.473,32.667 65.417 C 32.575 65.360,32.500 64.873,32.500 64.333 C 32.500 63.794,32.425 63.307,32.333 63.250 C 32.242 63.193,32.167 62.668,32.167 62.083 C 32.167 61.498,32.092 60.973,32.000 60.917 C 31.908 60.860,31.833 60.383,31.833 59.857 C 31.833 59.331,31.761 58.828,31.673 58.739 C 31.584 58.651,31.493 58.105,31.470 57.527 C 31.448 56.949,31.370 56.439,31.298 56.395 C 31.226 56.350,31.167 55.835,31.167 55.250 C 31.167 54.665,31.092 54.140,31.000 54.083 C 30.908 54.027,30.833 53.539,30.833 53.000 C 30.833 52.461,30.758 51.973,30.667 51.917 C 30.575 51.860,30.500 51.335,30.500 50.750 C 30.500 50.165,30.425 49.640,30.333 49.583 C 30.242 49.527,30.167 49.105,30.167 48.646 C 30.167 48.187,30.092 47.672,30.001 47.502 C 29.910 47.332,29.825 46.735,29.813 46.176 C 29.800 45.617,29.724 45.119,29.645 45.070 C 29.565 45.021,29.500 44.502,29.500 43.917 C 29.500 43.332,29.425 42.807,29.333 42.750 C 29.242 42.693,29.167 42.206,29.167 41.667 C 29.167 41.127,29.092 40.640,29.000 40.583 C 28.908 40.527,28.833 40.002,28.833 39.417 C 28.833 38.832,28.758 38.307,28.667 38.250 C 28.575 38.193,28.500 37.716,28.500 37.190 C 28.500 36.664,28.426 36.159,28.335 36.068 C 28.244 35.977,28.159 35.436,28.146 34.865 C 28.133 34.293,28.058 33.786,27.978 33.736 C 27.898 33.687,27.833 33.164,27.833 32.573 C 27.833 31.969,27.761 31.500,27.667 31.500 C 27.573 31.500,27.500 31.031,27.500 30.427 C 27.500 29.836,27.425 29.307,27.333 29.250 C 27.242 29.193,27.167 28.668,27.167 28.083 C 27.167 27.498,27.092 26.973,27.000 26.917 C 26.908 26.860,26.833 26.438,26.833 25.979 C 26.833 25.520,26.761 25.009,26.672 24.843 C 26.583 24.677,26.492 24.077,26.470 23.509 C 26.447 22.940,26.370 22.439,26.298 22.395 C 26.226 22.350,26.167 21.835,26.167 21.250 C 26.167 20.665,26.092 20.140,26.000 20.083 C 25.908 20.027,25.833 19.539,25.833 19.000 C 25.833 18.461,25.758 17.973,25.667 17.917 C 25.575 17.860,25.500 17.335,25.500 16.750 C 25.500 16.165,25.425 15.640,25.333 15.583 C 25.242 15.527,25.167 15.105,25.167 14.646 C 25.167 14.187,25.092 13.672,25.001 13.502 C 24.910 13.332,24.825 12.735,24.813 12.176 C 24.800 11.617,24.724 11.119,24.645 11.070 C 24.565 11.021,24.500 10.497,24.500 9.907 C 24.500 9.302,24.427 8.833,24.333 8.833 C 24.239 8.833,24.167 8.364,24.167 7.760 C 24.167 7.169,24.092 6.640,24.000 6.583 C 23.908 6.527,23.833 6.012,23.833 5.440 C 23.833 4.868,23.765 4.329,23.681 4.242 C 23.537 4.092,23.448 3.456,23.232 1.042 L 23.138 0.000 11.557 0.000 L -0.025 0.000 0.093 1.542 M330.833 73.834 L 330.833 147.684 352.492 147.634 C 369.542 147.594,374.194 147.539,374.358 147.375 C 374.473 147.260,374.931 147.167,375.377 147.167 C 375.874 147.167,376.147 147.102,376.083 147.000 C 376.020 146.897,376.301 146.833,376.814 146.833 C 377.272 146.833,377.693 146.758,377.750 146.667 C 377.807 146.575,378.069 146.500,378.333 146.500 C 378.598 146.500,378.860 146.425,378.917 146.333 C 378.973 146.242,379.198 146.167,379.417 146.167 C 379.635 146.167,379.860 146.092,379.917 146.000 C 379.973 145.908,380.198 145.833,380.417 145.833 C 380.635 145.833,380.860 145.758,380.917 145.667 C 380.973 145.575,381.203 145.500,381.427 145.500 C 381.650 145.500,381.833 145.425,381.833 145.333 C 381.833 145.242,381.983 145.167,382.167 145.167 C 382.350 145.167,382.500 145.092,382.500 145.000 C 382.500 144.908,382.725 144.833,383.000 144.833 C 383.275 144.833,383.500 144.759,383.500 144.668 C 383.500 144.576,383.856 144.336,384.292 144.134 C 384.727 143.931,385.108 143.706,385.139 143.633 C 385.169 143.560,385.296 143.500,385.421 143.500 C 385.546 143.500,385.746 143.369,385.866 143.208 C 385.985 143.048,386.231 142.891,386.411 142.860 C 386.590 142.828,386.862 142.659,387.013 142.485 C 387.165 142.310,387.381 142.167,387.494 142.167 C 387.607 142.167,387.910 141.942,388.167 141.667 C 388.424 141.392,388.709 141.167,388.802 141.167 C 389.077 141.167,391.348 138.825,391.241 138.652 C 391.186 138.564,391.204 138.502,391.279 138.516 C 391.635 138.577,391.833 138.477,391.833 138.237 C 391.833 138.092,392.133 137.668,392.500 137.294 C 392.867 136.920,393.167 136.525,393.167 136.416 C 393.167 136.307,393.317 136.083,393.500 135.917 C 393.683 135.751,393.833 135.526,393.833 135.417 C 393.833 135.308,393.969 135.096,394.134 134.946 C 394.300 134.796,394.539 134.410,394.665 134.087 C 394.792 133.764,394.957 133.500,395.031 133.500 C 395.106 133.500,395.167 133.350,395.167 133.167 C 395.167 132.983,395.242 132.833,395.333 132.833 C 395.425 132.833,395.500 132.683,395.500 132.500 C 395.500 132.317,395.575 132.167,395.667 132.167 C 395.758 132.167,395.833 131.993,395.833 131.781 C 395.833 131.570,395.983 131.235,396.167 131.038 C 396.350 130.842,396.500 130.564,396.500 130.421 C 396.500 130.279,396.575 130.013,396.667 129.831 C 396.758 129.649,396.908 129.351,397.000 129.169 C 397.092 128.987,397.167 128.687,397.167 128.502 C 397.167 128.318,397.242 128.167,397.333 128.167 C 397.425 128.167,397.500 127.942,397.500 127.667 C 397.500 127.392,397.575 127.167,397.667 127.167 C 397.758 127.167,397.833 126.946,397.833 126.677 C 397.833 126.407,397.908 126.140,398.000 126.083 C 398.092 126.027,398.167 125.727,398.167 125.417 C 398.167 125.107,398.230 124.814,398.308 124.766 C 398.385 124.718,398.456 124.441,398.464 124.150 C 398.472 123.859,398.559 123.541,398.656 123.444 C 398.754 123.346,398.833 122.944,398.833 122.550 C 398.833 122.156,398.908 121.833,399.000 121.833 C 399.095 121.833,399.167 121.337,399.167 120.677 C 399.167 120.038,399.246 119.471,399.344 119.410 C 399.442 119.350,399.509 119.101,399.493 118.858 C 399.429 117.862,399.509 116.986,399.656 117.077 C 399.936 117.250,400.093 31.752,399.815 30.796 C 399.769 30.639,399.680 30.457,399.616 30.394 C 399.552 30.330,399.500 29.728,399.500 29.056 C 399.500 28.352,399.429 27.833,399.333 27.833 C 399.242 27.833,399.167 27.465,399.167 27.014 C 399.167 26.563,399.090 26.169,398.996 26.138 C 398.903 26.106,398.816 25.797,398.803 25.450 C 398.789 25.103,398.716 24.781,398.639 24.733 C 398.563 24.686,398.500 24.393,398.500 24.083 C 398.500 23.773,398.425 23.473,398.333 23.417 C 398.242 23.360,398.167 23.056,398.167 22.740 C 398.167 22.425,398.092 22.167,398.000 22.167 C 397.908 22.167,397.833 21.948,397.833 21.681 C 397.833 21.413,397.749 21.166,397.646 21.132 C 397.543 21.098,397.458 20.866,397.458 20.618 C 397.458 20.370,397.393 20.167,397.313 20.167 C 397.232 20.167,397.167 19.942,397.167 19.667 C 397.167 19.392,397.110 19.166,397.042 19.165 C 396.875 19.164,396.500 18.341,396.500 17.977 C 396.500 17.817,396.425 17.640,396.333 17.583 C 396.242 17.527,396.167 17.335,396.167 17.157 C 396.167 16.979,396.092 16.833,396.000 16.833 C 395.908 16.833,395.833 16.691,395.833 16.518 C 395.833 16.344,395.720 16.159,395.582 16.106 C 395.443 16.053,395.347 15.951,395.367 15.880 C 395.388 15.808,395.316 15.591,395.208 15.397 C 395.100 15.203,395.065 14.984,395.131 14.912 C 395.196 14.839,395.156 14.834,395.042 14.900 C 394.920 14.970,394.832 14.928,394.830 14.802 C 394.828 14.682,394.679 14.396,394.500 14.167 C 394.321 13.938,394.172 13.647,394.170 13.522 C 394.168 13.397,393.923 13.070,393.625 12.797 C 393.327 12.524,393.196 12.357,393.333 12.427 C 393.489 12.506,393.455 12.402,393.242 12.152 C 393.055 11.931,392.797 11.541,392.669 11.286 C 392.532 11.010,392.345 10.857,392.210 10.909 C 392.085 10.957,392.026 10.926,392.079 10.840 C 392.197 10.649,390.130 8.500,389.828 8.500 C 389.709 8.500,389.653 8.458,389.705 8.407 C 389.811 8.300,388.015 6.500,387.802 6.500 C 387.726 6.500,387.428 6.275,387.140 6.000 C 386.853 5.725,386.532 5.500,386.429 5.500 C 386.325 5.500,386.132 5.350,386.000 5.167 C 385.868 4.983,385.626 4.833,385.463 4.833 C 385.300 4.833,385.167 4.758,385.167 4.667 C 385.167 4.575,385.017 4.500,384.833 4.500 C 384.650 4.500,384.500 4.425,384.500 4.333 C 384.500 4.242,384.385 4.167,384.244 4.167 C 384.103 4.167,383.792 4.038,383.552 3.881 C 383.313 3.724,382.998 3.578,382.853 3.557 C 382.708 3.536,382.563 3.439,382.531 3.342 C 382.499 3.246,382.328 3.167,382.153 3.167 C 381.977 3.167,381.833 3.092,381.833 3.000 C 381.833 2.908,381.683 2.833,381.500 2.833 C 381.317 2.833,381.167 2.750,381.167 2.647 C 381.167 2.537,380.991 2.495,380.737 2.543 C 380.464 2.595,380.275 2.542,380.219 2.396 C 380.171 2.270,379.914 2.167,379.649 2.167 C 379.384 2.167,379.167 2.092,379.167 2.000 C 379.167 1.908,378.942 1.833,378.667 1.833 C 378.392 1.833,378.167 1.758,378.167 1.667 C 378.167 1.575,377.942 1.500,377.667 1.500 C 377.392 1.500,377.167 1.425,377.167 1.333 C 377.167 1.242,376.792 1.167,376.333 1.167 C 375.875 1.167,375.500 1.092,375.500 1.000 C 375.500 0.908,375.167 0.833,374.760 0.833 C 374.353 0.833,373.973 0.758,373.917 0.667 C 373.860 0.575,373.410 0.500,372.917 0.500 C 372.423 0.500,371.974 0.426,371.918 0.336 C 371.783 0.117,373.567 0.141,350.958 0.058 L 330.833 -0.015 330.833 73.834 M100.167 20.000 C 100.167 20.458,100.242 20.833,100.333 20.833 C 100.425 20.833,100.500 21.052,100.500 21.319 C 100.500 21.587,100.578 21.832,100.674 21.864 C 100.770 21.895,100.861 22.089,100.876 22.294 C 100.892 22.499,100.949 22.667,101.003 22.667 C 101.057 22.667,101.120 22.985,101.142 23.375 C 101.165 23.765,101.255 24.108,101.342 24.139 C 101.429 24.169,101.500 24.371,101.500 24.587 C 101.500 24.804,101.575 25.027,101.667 25.083 C 101.758 25.140,101.833 25.407,101.833 25.677 C 101.833 25.946,101.908 26.167,102.000 26.167 C 102.092 26.167,102.167 26.350,102.167 26.573 C 102.167 26.797,102.242 27.027,102.333 27.083 C 102.425 27.140,102.500 27.440,102.500 27.750 C 102.500 28.060,102.575 28.360,102.667 28.417 C 102.758 28.473,102.833 28.698,102.833 28.917 C 102.833 29.135,102.908 29.360,103.000 29.417 C 103.092 29.473,103.167 29.740,103.167 30.010 C 103.167 30.279,103.242 30.500,103.333 30.500 C 103.425 30.500,103.500 30.725,103.500 31.000 C 103.500 31.275,103.575 31.500,103.667 31.500 C 103.758 31.500,103.833 31.721,103.833 31.990 C 103.833 32.260,103.908 32.527,104.000 32.583 C 104.092 32.640,104.167 32.944,104.167 33.260 C 104.167 33.575,104.242 33.833,104.333 33.833 C 104.425 33.833,104.500 33.972,104.500 34.141 C 104.500 34.310,104.618 34.684,104.761 34.972 C 104.905 35.260,104.968 35.583,104.902 35.690 C 104.827 35.812,104.854 35.840,104.974 35.766 C 105.106 35.685,105.167 35.832,105.167 36.230 C 105.167 36.551,105.242 36.860,105.333 36.917 C 105.425 36.973,105.500 37.198,105.500 37.417 C 105.500 37.635,105.575 37.860,105.667 37.917 C 105.758 37.973,105.833 38.236,105.833 38.500 C 105.833 38.764,105.908 39.027,106.000 39.083 C 106.092 39.140,106.167 39.407,106.167 39.677 C 106.167 39.946,106.242 40.167,106.333 40.167 C 106.425 40.167,106.500 40.385,106.500 40.653 C 106.500 40.920,106.573 41.164,106.661 41.194 C 106.750 41.225,106.840 41.512,106.862 41.833 C 106.883 42.154,106.959 42.457,107.029 42.507 C 107.100 42.557,107.183 42.745,107.212 42.924 C 107.242 43.103,107.346 43.400,107.444 43.583 C 107.542 43.767,107.585 44.019,107.540 44.144 C 107.496 44.269,107.547 44.426,107.655 44.493 C 107.762 44.559,107.861 44.794,107.875 45.015 C 107.889 45.236,107.954 45.455,108.020 45.501 C 108.085 45.548,108.167 45.810,108.201 46.085 C 108.235 46.359,108.352 46.742,108.459 46.936 C 108.567 47.131,108.609 47.335,108.554 47.391 C 108.498 47.446,108.538 47.595,108.643 47.721 C 108.747 47.847,108.849 48.144,108.869 48.380 C 108.888 48.616,108.963 48.773,109.035 48.728 C 109.108 48.684,109.167 48.914,109.167 49.240 C 109.167 49.566,109.242 49.833,109.333 49.833 C 109.425 49.833,109.500 50.058,109.500 50.333 C 109.500 50.608,109.575 50.833,109.667 50.833 C 109.758 50.833,109.833 51.133,109.833 51.500 C 109.833 51.867,109.908 52.167,110.000 52.167 C 110.092 52.167,110.167 52.350,110.167 52.573 C 110.167 52.797,110.242 53.027,110.333 53.083 C 110.425 53.140,110.500 53.407,110.500 53.677 C 110.500 53.946,110.575 54.167,110.667 54.167 C 110.758 54.167,110.833 54.354,110.833 54.583 C 110.833 54.813,110.908 55.000,111.000 55.000 C 111.092 55.000,111.167 55.216,111.167 55.481 C 111.167 55.745,111.273 56.167,111.403 56.418 C 111.534 56.669,111.604 56.970,111.559 57.087 C 111.514 57.204,111.557 57.349,111.655 57.410 C 111.753 57.470,111.833 57.740,111.833 58.010 C 111.833 58.279,111.908 58.500,112.000 58.500 C 112.092 58.500,112.167 58.725,112.167 59.000 C 112.167 59.275,112.242 59.500,112.333 59.500 C 112.425 59.500,112.500 59.729,112.500 60.010 C 112.500 60.307,112.569 60.477,112.667 60.417 C 112.764 60.357,112.833 60.523,112.833 60.814 C 112.833 61.089,112.908 61.360,113.000 61.417 C 113.092 61.473,113.167 61.773,113.167 62.083 C 113.167 62.393,113.242 62.693,113.333 62.750 C 113.425 62.807,113.500 63.074,113.500 63.343 C 113.500 63.613,113.575 63.833,113.667 63.833 C 113.758 63.833,113.833 64.058,113.833 64.333 C 113.833 64.608,113.908 64.833,114.000 64.833 C 114.092 64.833,114.167 65.021,114.167 65.250 C 114.167 65.479,114.229 65.667,114.306 65.667 C 114.444 65.667,114.471 65.785,114.517 66.586 C 114.531 66.817,114.607 67.047,114.688 67.096 C 114.768 67.146,114.833 67.407,114.833 67.677 C 114.833 67.946,114.908 68.167,115.000 68.167 C 115.092 68.167,115.167 68.392,115.167 68.667 C 115.167 68.942,115.242 69.167,115.333 69.167 C 115.425 69.167,115.500 69.354,115.500 69.583 C 115.500 69.813,115.575 70.000,115.667 70.000 C 115.758 70.000,115.833 70.296,115.833 70.657 C 115.833 71.018,115.908 71.360,116.000 71.417 C 116.092 71.473,116.167 71.698,116.167 71.917 C 116.167 72.135,116.242 72.360,116.333 72.417 C 116.425 72.473,116.500 72.740,116.500 73.010 C 116.500 73.279,116.575 73.500,116.667 73.500 C 116.758 73.500,116.833 73.719,116.833 73.986 C 116.833 74.253,116.912 74.498,117.007 74.530 C 117.103 74.562,117.194 74.756,117.210 74.961 C 117.225 75.166,117.282 75.333,117.336 75.333 C 117.390 75.333,117.453 75.652,117.476 76.042 C 117.498 76.431,117.588 76.775,117.675 76.806 C 117.762 76.836,117.833 76.996,117.833 77.162 C 117.833 77.327,117.940 77.667,118.070 77.918 C 118.200 78.169,118.267 78.478,118.219 78.604 C 118.171 78.730,118.206 78.833,118.297 78.833 C 118.453 78.833,118.556 79.183,118.776 80.460 C 118.828 80.759,118.937 81.044,119.018 81.095 C 119.100 81.145,119.167 81.365,119.167 81.583 C 119.167 81.802,119.242 82.027,119.333 82.083 C 119.425 82.140,119.500 82.365,119.500 82.583 C 119.500 82.802,119.575 83.027,119.667 83.083 C 119.776 83.151,119.833 90.918,119.833 105.843 L 119.833 128.500 127.667 128.500 L 135.500 128.500 135.500 106.093 C 135.500 91.335,135.557 83.651,135.667 83.583 C 135.758 83.527,135.833 83.302,135.833 83.083 C 135.833 82.865,135.908 82.640,136.000 82.583 C 136.092 82.527,136.167 82.302,136.167 82.083 C 136.167 81.865,136.242 81.640,136.333 81.583 C 136.425 81.527,136.500 81.264,136.500 81.000 C 136.500 80.736,136.575 80.473,136.667 80.417 C 136.758 80.360,136.833 80.135,136.833 79.917 C 136.833 79.698,136.908 79.473,137.000 79.417 C 137.092 79.360,137.167 79.098,137.167 78.833 C 137.167 78.569,137.242 78.307,137.333 78.250 C 137.425 78.193,137.500 77.926,137.500 77.657 C 137.500 77.387,137.566 77.167,137.646 77.167 C 137.726 77.167,137.792 76.964,137.792 76.715 C 137.792 76.467,137.876 76.236,137.979 76.201 C 138.082 76.167,138.167 75.887,138.167 75.579 C 138.167 75.271,138.242 74.973,138.333 74.917 C 138.425 74.860,138.500 74.635,138.500 74.417 C 138.500 74.198,138.575 73.973,138.667 73.917 C 138.758 73.860,138.833 73.598,138.833 73.333 C 138.833 73.069,138.908 72.807,139.000 72.750 C 139.092 72.693,139.167 72.468,139.167 72.250 C 139.167 72.032,139.242 71.807,139.333 71.750 C 139.425 71.693,139.500 71.431,139.500 71.167 C 139.500 70.902,139.575 70.640,139.667 70.583 C 139.758 70.527,139.833 70.260,139.833 69.990 C 139.833 69.721,139.899 69.500,139.979 69.500 C 140.059 69.500,140.125 69.297,140.125 69.049 C 140.125 68.800,140.209 68.569,140.313 68.535 C 140.416 68.500,140.500 68.220,140.500 67.913 C 140.500 67.605,140.575 67.307,140.667 67.250 C 140.758 67.193,140.833 66.884,140.833 66.564 C 140.833 66.217,140.901 66.022,141.000 66.083 C 141.097 66.143,141.167 65.977,141.167 65.686 C 141.167 65.411,141.242 65.140,141.333 65.083 C 141.425 65.027,141.500 64.802,141.500 64.583 C 141.500 64.365,141.575 64.140,141.667 64.083 C 141.758 64.027,141.833 63.764,141.833 63.500 C 141.833 63.236,141.908 62.973,142.000 62.917 C 142.092 62.860,142.167 62.593,142.167 62.323 C 142.167 62.054,142.232 61.833,142.313 61.833 C 142.393 61.833,142.458 61.630,142.458 61.382 C 142.458 61.134,142.543 60.902,142.646 60.868 C 142.749 60.834,142.833 60.554,142.833 60.246 C 142.833 59.938,142.908 59.640,143.000 59.583 C 143.092 59.527,143.167 59.218,143.167 58.897 C 143.167 58.551,143.234 58.355,143.333 58.417 C 143.430 58.477,143.500 58.311,143.500 58.020 C 143.500 57.745,143.575 57.473,143.667 57.417 C 143.758 57.360,143.833 57.135,143.833 56.917 C 143.833 56.698,143.908 56.473,144.000 56.417 C 144.092 56.360,144.167 56.098,144.167 55.833 C 144.167 55.569,144.242 55.307,144.333 55.250 C 144.425 55.193,144.500 54.926,144.500 54.657 C 144.500 54.387,144.566 54.167,144.646 54.167 C 144.726 54.167,144.792 53.964,144.792 53.715 C 144.792 53.467,144.876 53.236,144.979 53.201 C 145.082 53.167,145.167 52.887,145.167 52.579 C 145.167 52.271,145.242 51.973,145.333 51.917 C 145.425 51.860,145.500 51.551,145.500 51.230 C 145.500 50.884,145.568 50.689,145.667 50.750 C 145.764 50.810,145.833 50.644,145.833 50.353 C 145.833 50.078,145.908 49.807,146.000 49.750 C 146.092 49.693,146.167 49.468,146.167 49.250 C 146.167 49.032,146.242 48.807,146.333 48.750 C 146.425 48.693,146.500 48.431,146.500 48.167 C 146.500 47.902,146.575 47.640,146.667 47.583 C 146.758 47.527,146.833 47.218,146.833 46.897 C 146.833 46.576,146.890 46.348,146.958 46.391 C 147.027 46.433,147.095 46.271,147.110 46.031 C 147.124 45.790,147.218 45.566,147.318 45.533 C 147.418 45.500,147.500 45.258,147.500 44.996 C 147.500 44.734,147.575 44.473,147.667 44.417 C 147.758 44.360,147.833 44.014,147.833 43.647 C 147.833 43.245,147.899 43.021,148.000 43.083 C 148.097 43.143,148.167 42.977,148.167 42.686 C 148.167 42.411,148.242 42.140,148.333 42.083 C 148.425 42.027,148.500 41.802,148.500 41.583 C 148.500 41.365,148.575 41.140,148.667 41.083 C 148.758 41.027,148.833 40.764,148.833 40.500 C 148.833 40.236,148.908 39.973,149.000 39.917 C 149.092 39.860,149.167 39.593,149.167 39.323 C 149.167 39.054,149.232 38.833,149.313 38.833 C 149.393 38.833,149.458 38.630,149.458 38.382 C 149.458 38.134,149.543 37.902,149.646 37.868 C 149.749 37.834,149.833 37.591,149.833 37.329 C 149.833 37.067,149.908 36.807,150.000 36.750 C 150.092 36.693,150.167 36.389,150.167 36.073 C 150.167 35.758,150.242 35.500,150.333 35.500 C 150.425 35.500,150.500 35.279,150.500 35.010 C 150.500 34.740,150.575 34.473,150.667 34.417 C 150.758 34.360,150.833 34.143,150.833 33.935 C 150.833 33.726,150.886 33.503,150.951 33.438 C 151.015 33.374,151.095 33.117,151.128 32.869 C 151.160 32.620,151.258 32.345,151.344 32.258 C 151.430 32.171,151.500 31.890,151.500 31.633 C 151.500 31.377,151.566 31.167,151.646 31.167 C 151.726 31.167,151.792 30.964,151.792 30.715 C 151.792 30.467,151.876 30.236,151.979 30.201 C 152.082 30.167,152.167 29.887,152.167 29.579 C 152.167 29.271,152.242 28.973,152.333 28.917 C 152.425 28.860,152.500 28.551,152.500 28.230 C 152.500 27.884,152.568 27.689,152.667 27.750 C 152.764 27.810,152.833 27.644,152.833 27.353 C 152.833 27.078,152.908 26.807,153.000 26.750 C 153.092 26.693,153.167 26.476,153.167 26.268 C 153.167 26.059,153.220 25.836,153.284 25.771 C 153.349 25.707,153.428 25.451,153.461 25.202 C 153.494 24.953,153.591 24.679,153.677 24.592 C 153.763 24.505,153.833 24.223,153.833 23.967 C 153.833 23.710,153.899 23.500,153.979 23.500 C 154.059 23.500,154.125 23.297,154.125 23.049 C 154.125 22.800,154.209 22.569,154.313 22.535 C 154.416 22.500,154.500 22.220,154.500 21.913 C 154.500 21.605,154.575 21.307,154.667 21.250 C 154.758 21.193,154.833 20.884,154.833 20.564 C 154.833 20.217,154.901 20.022,155.000 20.083 C 155.097 20.143,155.167 19.976,155.167 19.682 L 155.167 19.178 146.661 19.170 C 137.544 19.161,137.500 19.165,137.500 19.996 C 137.500 20.262,137.425 20.527,137.333 20.583 C 137.242 20.640,137.167 20.944,137.167 21.260 C 137.167 21.575,137.099 21.833,137.016 21.833 C 136.933 21.833,136.824 22.190,136.773 22.625 C 136.582 24.248,136.461 24.833,136.316 24.833 C 136.234 24.833,136.167 25.133,136.167 25.500 C 136.167 25.867,136.099 26.167,136.017 26.167 C 135.934 26.167,135.867 26.437,135.867 26.767 C 135.867 27.097,135.784 27.449,135.683 27.550 C 135.582 27.651,135.500 28.014,135.500 28.357 C 135.500 28.700,135.437 29.019,135.361 29.066 C 135.284 29.114,135.211 29.437,135.197 29.783 C 135.184 30.130,135.097 30.440,135.004 30.471 C 134.910 30.502,134.833 30.817,134.833 31.171 C 134.833 31.524,134.758 31.860,134.667 31.917 C 134.575 31.973,134.500 32.353,134.500 32.760 C 134.500 33.167,134.425 33.500,134.333 33.500 C 134.242 33.500,134.167 33.842,134.167 34.260 C 134.167 34.678,134.107 34.983,134.033 34.937 C 133.960 34.892,133.882 35.131,133.859 35.469 C 133.837 35.807,133.747 36.108,133.659 36.139 C 133.572 36.169,133.500 36.488,133.500 36.847 C 133.500 37.206,133.425 37.500,133.333 37.500 C 133.242 37.500,133.167 37.833,133.167 38.240 C 133.167 38.647,133.092 39.027,133.000 39.083 C 132.908 39.140,132.833 39.482,132.833 39.843 C 132.833 40.204,132.758 40.500,132.667 40.500 C 132.575 40.500,132.500 40.800,132.500 41.167 C 132.500 41.533,132.425 41.833,132.333 41.833 C 132.242 41.833,132.167 42.129,132.167 42.490 C 132.167 42.851,132.092 43.193,132.000 43.250 C 131.908 43.307,131.833 43.607,131.833 43.917 C 131.833 44.227,131.767 44.521,131.686 44.571 C 131.606 44.621,131.535 44.980,131.530 45.369 C 131.524 45.758,131.440 46.103,131.343 46.136 C 131.246 46.168,131.167 46.484,131.167 46.837 C 131.167 47.191,131.103 47.520,131.026 47.568 C 130.948 47.616,130.878 47.893,130.869 48.184 C 130.861 48.474,130.775 48.792,130.677 48.890 C 130.580 48.987,130.500 49.347,130.500 49.690 C 130.500 50.033,130.425 50.360,130.333 50.417 C 130.242 50.473,130.167 50.815,130.167 51.177 C 130.167 51.538,130.092 51.833,130.000 51.833 C 129.908 51.833,129.833 52.129,129.833 52.490 C 129.833 52.851,129.758 53.193,129.667 53.250 C 129.575 53.307,129.500 53.611,129.500 53.927 C 129.500 54.242,129.425 54.500,129.333 54.500 C 129.242 54.500,129.167 54.875,129.167 55.333 C 129.167 55.792,129.092 56.167,129.000 56.167 C 128.908 56.167,128.833 56.467,128.833 56.833 C 128.833 57.200,128.758 57.500,128.667 57.500 C 128.575 57.500,128.500 57.800,128.500 58.167 C 128.500 58.533,128.425 58.833,128.333 58.833 C 128.242 58.833,128.167 59.166,128.167 59.573 C 128.167 59.981,128.092 60.360,128.000 60.417 C 127.908 60.473,127.833 60.665,127.833 60.843 C 127.833 61.021,127.758 61.167,127.667 61.167 C 127.575 61.167,127.500 60.910,127.500 60.597 C 127.500 60.284,127.429 60.003,127.342 59.972 C 127.256 59.942,127.166 59.556,127.144 59.115 C 127.122 58.675,127.043 58.276,126.968 58.230 C 126.894 58.185,126.833 57.893,126.833 57.583 C 126.833 57.273,126.758 56.973,126.667 56.917 C 126.575 56.860,126.500 56.524,126.500 56.171 C 126.500 55.817,126.422 55.502,126.326 55.470 C 126.230 55.438,126.136 55.139,126.118 54.805 C 126.099 54.471,126.027 54.233,125.958 54.276 C 125.890 54.318,125.833 54.011,125.833 53.593 C 125.833 53.175,125.758 52.833,125.667 52.833 C 125.575 52.833,125.500 52.540,125.500 52.181 C 125.500 51.822,125.423 51.502,125.330 51.471 C 125.236 51.440,125.149 51.130,125.136 50.783 C 125.123 50.437,125.049 50.114,124.973 50.066 C 124.896 50.019,124.833 49.760,124.833 49.490 C 124.833 49.221,124.758 49.000,124.667 49.000 C 124.575 49.000,124.500 48.594,124.500 48.097 C 124.500 47.589,124.420 47.168,124.317 47.133 C 124.216 47.100,124.133 46.793,124.133 46.453 C 124.133 46.112,124.066 45.833,123.983 45.833 C 123.901 45.833,123.833 45.533,123.833 45.167 C 123.833 44.800,123.758 44.500,123.667 44.500 C 123.575 44.500,123.500 44.196,123.500 43.823 C 123.500 43.415,123.434 43.188,123.333 43.250 C 123.186 43.341,123.079 42.638,123.151 42.054 C 123.165 41.947,123.099 41.811,123.004 41.753 C 122.910 41.695,122.833 41.426,122.833 41.157 C 122.833 40.887,122.758 40.667,122.667 40.667 C 122.575 40.667,122.500 40.328,122.500 39.914 C 122.500 39.501,122.425 39.013,122.333 38.831 C 122.242 38.649,122.092 38.351,122.000 38.169 C 121.779 37.730,121.790 37.622,122.042 37.765 C 122.208 37.859,122.208 37.837,122.042 37.658 C 121.927 37.534,121.833 37.148,121.833 36.800 C 121.833 36.452,121.758 36.167,121.667 36.167 C 121.575 36.167,121.500 35.867,121.500 35.500 C 121.500 35.133,121.425 34.833,121.333 34.833 C 121.242 34.833,121.167 34.538,121.167 34.177 C 121.167 33.815,121.100 33.478,121.018 33.428 C 120.875 33.340,120.759 32.829,120.560 31.417 C 120.508 31.050,120.399 30.679,120.316 30.592 C 120.234 30.505,120.167 30.190,120.167 29.893 C 120.167 29.596,120.092 29.307,120.000 29.250 C 119.908 29.193,119.833 28.893,119.833 28.583 C 119.833 28.273,119.758 27.973,119.667 27.917 C 119.575 27.860,119.500 27.518,119.500 27.157 C 119.500 26.796,119.425 26.500,119.333 26.500 C 119.242 26.500,119.167 26.200,119.167 25.833 C 119.167 25.467,119.092 25.167,119.000 25.167 C 118.908 25.167,118.833 24.871,118.833 24.510 C 118.833 24.149,118.758 23.807,118.667 23.750 C 118.575 23.693,118.500 23.393,118.500 23.083 C 118.500 22.773,118.425 22.473,118.333 22.417 C 118.242 22.360,118.167 22.023,118.167 21.667 C 118.167 21.311,118.092 20.973,118.000 20.917 C 117.908 20.860,117.833 20.646,117.833 20.440 C 117.833 20.235,117.740 19.865,117.625 19.618 L 117.417 19.169 108.792 19.168 L 100.167 19.167 100.167 20.000 M242.833 73.833 L 242.833 128.500 251.000 128.500 L 259.167 128.500 259.167 96.667 C 259.167 75.556,259.223 64.833,259.333 64.833 C 259.425 64.833,259.500 65.058,259.500 65.333 C 259.500 65.608,259.575 65.833,259.667 65.833 C 259.758 65.833,259.833 66.058,259.833 66.333 C 259.833 66.608,259.908 66.833,260.000 66.833 C 260.092 66.833,260.167 67.063,260.167 67.343 C 260.167 67.641,260.236 67.810,260.333 67.750 C 260.430 67.690,260.500 67.856,260.500 68.147 C 260.500 68.422,260.575 68.693,260.667 68.750 C 260.758 68.807,260.833 69.059,260.833 69.310 C 260.833 69.561,260.895 69.838,260.971 69.925 C 261.047 70.012,261.212 70.421,261.339 70.833 C 261.466 71.246,261.647 71.638,261.743 71.706 C 261.856 71.785,261.843 71.829,261.707 71.831 C 261.496 71.833,261.515 71.901,261.974 72.789 C 262.080 72.994,262.167 73.388,262.167 73.664 C 262.167 73.941,262.242 74.167,262.333 74.167 C 262.425 74.167,262.500 74.310,262.500 74.486 C 262.500 74.662,262.574 74.831,262.665 74.861 C 262.756 74.892,262.856 75.142,262.887 75.417 C 262.946 75.941,263.086 76.387,263.345 76.873 C 263.430 77.032,263.500 77.388,263.500 77.664 C 263.500 77.941,263.575 78.167,263.667 78.167 C 263.758 78.167,263.833 78.350,263.833 78.573 C 263.833 78.797,263.908 79.027,264.000 79.083 C 264.092 79.140,264.167 79.365,264.167 79.583 C 264.167 79.802,264.242 80.027,264.333 80.083 C 264.425 80.140,264.500 80.365,264.500 80.583 C 264.500 80.802,264.575 81.027,264.667 81.083 C 264.758 81.140,264.833 81.365,264.833 81.583 C 264.833 81.802,264.908 82.027,265.000 82.083 C 265.092 82.140,265.167 82.407,265.167 82.677 C 265.167 82.946,265.242 83.167,265.333 83.167 C 265.425 83.167,265.500 83.312,265.500 83.490 C 265.500 83.668,265.575 83.860,265.667 83.917 C 265.758 83.973,265.833 84.278,265.833 84.593 C 265.833 84.909,265.908 85.167,266.000 85.167 C 266.092 85.167,266.167 85.392,266.167 85.667 C 266.167 85.942,266.242 86.167,266.333 86.167 C 266.425 86.167,266.500 86.350,266.500 86.573 C 266.500 86.797,266.575 87.027,266.667 87.083 C 266.758 87.140,266.833 87.401,266.833 87.663 C 266.833 87.925,266.912 88.165,267.007 88.197 C 267.103 88.229,267.193 88.441,267.208 88.669 C 267.222 88.897,267.303 89.131,267.388 89.189 C 267.472 89.248,267.542 89.491,267.542 89.731 C 267.542 89.971,267.607 90.167,267.688 90.167 C 267.768 90.167,267.833 90.392,267.833 90.667 C 267.833 90.942,267.908 91.167,268.000 91.167 C 268.092 91.167,268.167 91.392,268.167 91.667 C 268.167 91.942,268.242 92.167,268.333 92.167 C 268.425 92.167,268.500 92.392,268.500 92.667 C 268.500 92.942,268.575 93.167,268.667 93.167 C 268.758 93.167,268.833 93.392,268.833 93.667 C 268.833 93.942,268.908 94.167,269.000 94.167 C 269.092 94.167,269.167 94.350,269.167 94.573 C 269.167 94.797,269.242 95.027,269.333 95.083 C 269.425 95.140,269.500 95.402,269.500 95.667 C 269.500 95.931,269.575 96.193,269.667 96.250 C 269.758 96.307,269.836 96.517,269.839 96.718 C 269.842 96.919,269.949 97.222,270.077 97.391 C 270.205 97.561,270.273 97.797,270.227 97.916 C 270.181 98.035,270.224 98.182,270.322 98.243 C 270.420 98.303,270.500 98.611,270.500 98.927 C 270.500 99.242,270.575 99.500,270.667 99.500 C 270.758 99.500,270.833 99.650,270.833 99.833 C 270.833 100.017,270.908 100.167,271.000 100.167 C 271.092 100.167,271.167 100.385,271.167 100.653 C 271.167 100.920,271.237 101.164,271.323 101.194 C 271.409 101.225,271.505 101.438,271.536 101.667 C 271.567 101.896,271.646 102.170,271.713 102.277 C 271.780 102.383,271.850 102.683,271.869 102.943 C 271.887 103.204,271.971 103.464,272.055 103.523 C 272.140 103.581,272.208 103.825,272.208 104.064 C 272.208 104.304,272.274 104.500,272.354 104.500 C 272.434 104.500,272.500 104.683,272.500 104.907 C 272.500 105.131,272.575 105.360,272.667 105.417 C 272.758 105.473,272.833 105.698,272.833 105.917 C 272.833 106.135,272.908 106.360,273.000 106.417 C 273.092 106.473,273.167 106.698,273.167 106.917 C 273.167 107.135,273.242 107.360,273.333 107.417 C 273.425 107.473,273.500 107.740,273.500 108.010 C 273.500 108.279,273.575 108.500,273.667 108.500 C 273.758 108.500,273.833 108.725,273.833 109.000 C 273.833 109.275,273.908 109.500,274.000 109.500 C 274.092 109.500,274.167 109.725,274.167 110.000 C 274.167 110.275,274.242 110.500,274.333 110.500 C 274.425 110.500,274.500 110.725,274.500 111.000 C 274.500 111.275,274.575 111.500,274.667 111.500 C 274.758 111.500,274.833 111.683,274.833 111.907 C 274.833 112.131,274.908 112.360,275.000 112.417 C 275.092 112.473,275.167 112.698,275.167 112.917 C 275.167 113.135,275.242 113.360,275.333 113.417 C 275.425 113.473,275.500 113.734,275.500 113.996 C 275.500 114.258,275.584 114.500,275.688 114.535 C 275.791 114.569,275.875 114.800,275.875 115.049 C 275.875 115.297,275.941 115.500,276.021 115.500 C 276.101 115.500,276.167 115.725,276.167 116.000 C 276.167 116.275,276.242 116.500,276.333 116.500 C 276.425 116.500,276.500 116.725,276.500 117.000 C 276.500 117.275,276.575 117.500,276.667 117.500 C 276.758 117.500,276.833 117.725,276.833 118.000 C 276.833 118.275,276.908 118.500,277.000 118.500 C 277.092 118.500,277.167 118.729,277.167 119.010 C 277.167 119.307,277.236 119.477,277.333 119.417 C 277.431 119.357,277.500 119.526,277.500 119.823 C 277.500 120.104,277.575 120.333,277.667 120.333 C 277.758 120.333,277.833 120.581,277.833 120.883 C 277.833 121.186,277.895 121.505,277.971 121.592 C 278.047 121.679,278.204 122.087,278.321 122.500 C 278.437 122.912,278.600 123.380,278.683 123.539 C 278.766 123.699,278.833 123.975,278.833 124.155 C 278.833 124.334,278.908 124.527,279.000 124.583 C 279.092 124.640,279.167 124.944,279.167 125.260 C 279.167 125.575,279.242 125.833,279.333 125.833 C 279.425 125.833,279.500 125.977,279.500 126.153 C 279.500 126.328,279.574 126.497,279.665 126.528 C 279.756 126.558,279.846 126.808,279.865 127.083 C 279.884 127.358,279.997 127.739,280.117 127.930 C 280.237 128.121,280.287 128.324,280.229 128.382 C 280.171 128.440,283.808 128.492,288.312 128.497 L 296.500 128.506 296.500 73.835 L 296.500 19.163 288.375 19.207 L 280.250 19.250 280.208 52.708 C 280.180 74.820,280.109 86.167,280.000 86.167 C 279.908 86.167,279.833 85.909,279.833 85.593 C 279.833 85.278,279.758 84.973,279.667 84.917 C 279.575 84.860,279.500 84.674,279.500 84.504 C 279.500 84.334,279.420 84.168,279.323 84.136 C 279.226 84.103,279.140 83.832,279.131 83.532 C 279.123 83.233,279.052 82.949,278.974 82.901 C 278.897 82.853,278.833 82.667,278.833 82.488 C 278.833 82.309,278.747 81.994,278.641 81.789 C 278.220 80.975,278.167 80.823,278.167 80.429 C 278.167 80.204,278.092 79.973,278.000 79.917 C 277.908 79.860,277.833 79.593,277.833 79.323 C 277.833 79.054,277.758 78.833,277.667 78.833 C 277.575 78.833,277.500 78.608,277.500 78.333 C 277.500 78.058,277.425 77.833,277.333 77.833 C 277.242 77.833,277.167 77.707,277.167 77.553 C 277.167 77.240,276.870 76.236,276.646 75.794 C 276.566 75.635,276.500 75.320,276.500 75.095 C 276.500 74.870,276.425 74.640,276.333 74.583 C 276.242 74.527,276.167 74.260,276.167 73.990 C 276.167 73.721,276.092 73.500,276.000 73.500 C 275.908 73.500,275.833 73.275,275.833 73.000 C 275.833 72.725,275.758 72.500,275.667 72.500 C 275.575 72.500,275.500 72.275,275.500 72.000 C 275.500 71.725,275.425 71.500,275.333 71.500 C 275.242 71.500,275.167 71.359,275.167 71.186 C 275.167 71.013,275.058 70.662,274.925 70.406 C 274.792 70.150,274.722 69.878,274.769 69.802 C 274.816 69.726,274.744 69.554,274.609 69.418 C 274.474 69.283,274.403 69.021,274.451 68.836 C 274.500 68.647,274.457 68.500,274.353 68.500 C 274.250 68.500,274.167 68.279,274.167 68.010 C 274.167 67.740,274.092 67.473,274.000 67.417 C 273.908 67.360,273.833 67.088,273.833 66.812 C 273.833 66.535,273.724 66.200,273.590 66.067 C 273.457 65.933,273.387 65.721,273.435 65.595 C 273.483 65.470,273.443 65.318,273.345 65.257 C 273.247 65.197,273.167 64.979,273.167 64.773 C 273.167 64.568,273.092 64.325,273.001 64.234 C 272.910 64.143,272.819 63.871,272.799 63.630 C 272.779 63.388,272.704 63.227,272.631 63.272 C 272.559 63.316,272.500 63.086,272.500 62.760 C 272.500 62.434,272.425 62.167,272.333 62.167 C 272.242 62.167,272.167 61.942,272.167 61.667 C 272.167 61.392,272.092 61.167,272.000 61.167 C 271.908 61.167,271.833 60.979,271.833 60.750 C 271.833 60.521,271.758 60.333,271.667 60.333 C 271.575 60.333,271.500 60.066,271.500 59.740 C 271.500 59.387,271.433 59.189,271.333 59.250 C 271.233 59.312,271.167 59.088,271.167 58.686 C 271.167 58.320,271.092 57.973,271.000 57.917 C 270.908 57.860,270.833 57.635,270.833 57.417 C 270.833 57.198,270.758 56.973,270.667 56.917 C 270.575 56.860,270.500 56.593,270.500 56.323 C 270.500 56.054,270.425 55.833,270.333 55.833 C 270.242 55.833,270.167 55.650,270.167 55.427 C 270.167 55.203,270.092 54.973,270.000 54.917 C 269.908 54.860,269.833 54.635,269.833 54.417 C 269.833 54.198,269.758 53.973,269.667 53.917 C 269.575 53.860,269.500 53.635,269.500 53.417 C 269.500 53.198,269.425 52.973,269.333 52.917 C 269.242 52.860,269.167 52.593,269.167 52.323 C 269.167 52.054,269.092 51.833,269.000 51.833 C 268.908 51.833,268.833 51.608,268.833 51.333 C 268.833 51.058,268.758 50.833,268.667 50.833 C 268.575 50.833,268.500 50.707,268.500 50.553 C 268.500 50.240,268.203 49.236,267.980 48.794 C 267.899 48.635,267.833 48.358,267.833 48.179 C 267.833 48.000,267.758 47.807,267.667 47.750 C 267.575 47.693,267.500 47.389,267.500 47.073 C 267.500 46.758,267.425 46.500,267.333 46.500 C 267.242 46.500,267.167 46.275,267.167 46.000 C 267.167 45.725,267.092 45.500,267.000 45.500 C 266.908 45.500,266.833 45.317,266.833 45.093 C 266.833 44.869,266.758 44.640,266.667 44.583 C 266.575 44.527,266.500 44.346,266.500 44.182 C 266.500 44.019,266.382 43.649,266.239 43.361 C 266.095 43.073,266.032 42.750,266.098 42.643 C 266.173 42.522,266.146 42.493,266.026 42.567 C 265.894 42.649,265.833 42.502,265.833 42.107 C 265.833 41.788,265.761 41.503,265.672 41.472 C 265.583 41.442,265.492 41.167,265.469 40.862 C 265.446 40.557,265.369 40.272,265.297 40.227 C 265.225 40.183,265.167 39.959,265.167 39.728 C 265.167 39.498,265.057 39.200,264.924 39.067 C 264.790 38.933,264.720 38.721,264.768 38.595 C 264.817 38.470,264.776 38.318,264.678 38.257 C 264.580 38.197,264.500 37.979,264.500 37.773 C 264.500 37.568,264.425 37.325,264.334 37.234 C 264.243 37.143,264.152 36.871,264.132 36.630 C 264.112 36.388,264.037 36.227,263.965 36.272 C 263.892 36.316,263.833 36.086,263.833 35.760 C 263.833 35.434,263.758 35.167,263.667 35.167 C 263.575 35.167,263.500 34.942,263.500 34.667 C 263.500 34.392,263.425 34.167,263.333 34.167 C 263.242 34.167,263.167 33.979,263.167 33.750 C 263.167 33.521,263.092 33.333,263.000 33.333 C 262.908 33.333,262.833 33.066,262.833 32.740 C 262.833 32.387,262.766 32.189,262.667 32.250 C 262.566 32.312,262.500 32.088,262.500 31.686 C 262.500 31.320,262.425 30.973,262.333 30.917 C 262.242 30.860,262.167 30.635,262.167 30.417 C 262.167 30.198,262.092 29.973,262.000 29.917 C 261.908 29.860,261.833 29.593,261.833 29.323 C 261.833 29.054,261.758 28.833,261.667 28.833 C 261.575 28.833,261.500 28.650,261.500 28.427 C 261.500 28.203,261.425 27.973,261.333 27.917 C 261.242 27.860,261.167 27.635,261.167 27.417 C 261.167 27.198,261.092 26.973,261.000 26.917 C 260.908 26.860,260.833 26.635,260.833 26.417 C 260.833 26.198,260.758 25.973,260.667 25.917 C 260.575 25.860,260.500 25.593,260.500 25.323 C 260.500 25.054,260.425 24.833,260.333 24.833 C 260.242 24.833,260.167 24.608,260.167 24.333 C 260.167 24.058,260.092 23.833,260.000 23.833 C 259.908 23.833,259.833 23.707,259.833 23.553 C 259.833 23.240,259.536 22.236,259.313 21.794 C 259.232 21.635,259.167 21.358,259.167 21.179 C 259.167 21.000,259.092 20.807,259.000 20.750 C 258.908 20.693,258.833 20.421,258.833 20.145 C 258.833 19.136,259.091 19.167,250.595 19.167 L 242.833 19.167 242.833 73.833 M362.901 22.290 C 363.044 22.433,363.108 22.441,364.385 22.475 C 364.982 22.490,365.314 22.564,365.250 22.667 C 365.190 22.764,365.359 22.833,365.657 22.833 C 365.937 22.833,366.167 22.908,366.167 23.000 C 366.167 23.092,366.379 23.167,366.639 23.167 C 366.899 23.167,367.163 23.219,367.227 23.282 C 367.290 23.346,367.509 23.423,367.713 23.454 C 367.917 23.484,368.108 23.582,368.139 23.671 C 368.169 23.761,368.338 23.833,368.514 23.833 C 368.690 23.833,368.833 23.908,368.833 24.000 C 368.833 24.092,368.983 24.167,369.167 24.167 C 369.350 24.167,369.500 24.246,369.500 24.343 C 369.500 24.440,369.575 24.473,369.667 24.417 C 369.758 24.360,369.833 24.431,369.833 24.573 C 369.833 24.740,369.984 24.833,370.255 24.833 C 370.499 24.833,370.723 24.953,370.786 25.118 C 370.918 25.461,371.678 26.154,371.930 26.161 C 372.029 26.164,372.217 26.370,372.347 26.618 C 372.477 26.866,372.772 27.260,373.003 27.493 C 373.234 27.726,373.528 28.123,373.656 28.375 C 373.785 28.627,373.952 28.833,374.028 28.833 C 374.104 28.833,374.167 28.983,374.167 29.167 C 374.167 29.350,374.242 29.500,374.333 29.500 C 374.425 29.500,374.500 29.650,374.500 29.833 C 374.500 30.017,374.575 30.167,374.667 30.167 C 374.758 30.167,374.833 30.284,374.833 30.427 C 374.833 30.569,374.892 30.650,374.965 30.605 C 375.037 30.561,375.113 30.725,375.133 30.970 C 375.153 31.216,375.244 31.442,375.335 31.472 C 375.426 31.503,375.500 31.747,375.500 32.014 C 375.500 32.281,375.575 32.500,375.667 32.500 C 375.758 32.500,375.833 32.767,375.833 33.093 C 375.833 33.419,375.896 33.648,375.972 33.601 C 376.048 33.554,376.127 33.941,376.149 34.462 C 376.170 34.983,376.258 35.453,376.345 35.507 C 376.567 35.644,376.555 115.012,376.333 115.234 C 376.241 115.325,376.167 115.643,376.167 115.940 C 376.167 116.237,376.092 116.527,376.000 116.583 C 375.908 116.640,375.833 116.944,375.833 117.260 C 375.833 117.575,375.758 117.833,375.667 117.833 C 375.575 117.833,375.500 117.971,375.500 118.139 C 375.500 118.307,375.444 118.501,375.375 118.569 C 375.306 118.638,375.250 118.750,375.250 118.817 C 375.250 119.062,374.444 120.500,374.307 120.500 C 374.230 120.500,374.167 120.598,374.167 120.717 C 374.167 120.836,373.735 121.408,373.208 121.987 C 372.681 122.567,372.250 123.118,372.250 123.213 C 372.250 123.308,372.123 123.403,371.969 123.426 C 371.814 123.449,371.519 123.625,371.312 123.817 C 371.106 124.009,370.847 124.167,370.736 124.167 C 370.626 124.167,370.493 124.278,370.441 124.414 C 370.387 124.555,370.235 124.619,370.090 124.563 C 369.949 124.509,369.833 124.547,369.833 124.649 C 369.833 124.750,369.683 124.833,369.500 124.833 C 369.317 124.833,369.167 124.908,369.167 125.000 C 369.167 125.092,368.937 125.167,368.657 125.167 C 368.359 125.167,368.190 125.236,368.250 125.333 C 368.318 125.443,365.946 125.500,361.260 125.500 L 354.167 125.500 354.167 73.833 L 354.167 22.167 358.472 22.167 C 360.840 22.167,362.833 22.222,362.901 22.290 M193.250 30.667 C 193.193 30.758,192.818 30.833,192.417 30.833 C 192.015 30.833,191.640 30.908,191.583 31.000 C 191.527 31.092,191.259 31.167,190.988 31.167 C 190.514 31.167,190.367 31.215,189.544 31.641 C 189.339 31.747,189.020 31.833,188.836 31.833 C 188.651 31.833,188.500 31.908,188.500 32.000 C 188.500 32.092,188.350 32.167,188.167 32.167 C 187.983 32.167,187.833 32.223,187.832 32.292 C 187.830 32.441,187.023 32.833,186.717 32.833 C 186.598 32.833,186.500 32.908,186.500 33.000 C 186.500 33.092,186.350 33.167,186.167 33.167 C 185.976 33.167,185.833 33.278,185.833 33.427 C 185.833 33.569,185.758 33.640,185.667 33.583 C 185.575 33.527,185.500 33.560,185.500 33.657 C 185.500 33.754,185.399 33.833,185.275 33.833 C 185.151 33.833,184.814 34.058,184.526 34.333 C 184.238 34.608,183.934 34.833,183.850 34.833 C 183.672 34.833,181.833 36.596,181.833 36.765 C 181.833 36.828,181.665 37.042,181.458 37.242 C 180.945 37.739,180.173 38.721,180.170 38.882 C 180.168 38.955,180.017 39.175,179.833 39.372 C 179.650 39.569,179.500 39.828,179.500 39.948 C 179.500 40.068,179.417 40.167,179.316 40.167 C 179.214 40.167,179.175 40.282,179.229 40.423 C 179.285 40.569,179.221 40.720,179.081 40.774 C 178.945 40.826,178.833 40.959,178.833 41.068 C 178.833 41.361,178.437 42.164,178.292 42.165 C 178.223 42.166,178.167 42.312,178.167 42.490 C 178.167 42.668,178.092 42.860,178.000 42.917 C 177.908 42.973,177.833 43.203,177.833 43.427 C 177.833 43.650,177.758 43.833,177.667 43.833 C 177.575 43.833,177.500 44.133,177.500 44.500 C 177.500 44.867,177.437 45.167,177.360 45.167 C 177.284 45.167,177.210 45.438,177.198 45.769 C 177.186 46.101,177.098 46.466,177.003 46.580 C 176.770 46.861,176.770 101.274,177.003 101.418 C 177.093 101.474,177.167 101.773,177.167 102.083 C 177.167 102.393,177.242 102.693,177.333 102.750 C 177.425 102.807,177.500 103.074,177.500 103.343 C 177.500 103.613,177.575 103.833,177.667 103.833 C 177.758 103.833,177.833 104.058,177.833 104.333 C 177.833 104.608,177.908 104.833,178.000 104.833 C 178.092 104.833,178.167 105.058,178.167 105.333 C 178.167 105.608,178.242 105.833,178.333 105.833 C 178.425 105.833,178.500 105.983,178.500 106.167 C 178.500 106.350,178.575 106.500,178.667 106.500 C 178.758 106.500,178.833 106.650,178.833 106.833 C 178.833 107.017,178.908 107.167,179.000 107.167 C 179.092 107.167,179.167 107.265,179.167 107.385 C 179.167 107.505,179.317 107.765,179.500 107.962 C 179.683 108.158,179.833 108.418,179.833 108.540 C 179.833 108.661,179.983 108.868,180.167 109.000 C 180.350 109.132,180.500 109.330,180.500 109.441 C 180.500 109.551,180.800 109.935,181.167 110.295 C 181.533 110.654,181.833 111.023,181.833 111.115 C 181.833 111.376,182.428 111.848,182.582 111.709 C 182.658 111.640,182.672 111.668,182.613 111.771 C 182.552 111.878,182.792 112.149,183.169 112.399 C 183.535 112.640,183.833 112.912,183.833 113.002 C 183.833 113.093,183.943 113.167,184.077 113.167 C 184.212 113.167,184.402 113.317,184.500 113.500 C 184.598 113.683,184.772 113.833,184.886 113.833 C 185.000 113.833,185.201 113.983,185.333 114.167 C 185.465 114.350,185.707 114.500,185.870 114.500 C 186.033 114.500,186.167 114.566,186.167 114.647 C 186.167 114.728,186.298 114.836,186.458 114.887 C 186.619 114.938,186.975 115.108,187.250 115.265 C 188.048 115.720,188.312 115.833,188.581 115.833 C 188.720 115.833,188.833 115.908,188.833 116.000 C 188.833 116.092,188.979 116.167,189.157 116.167 C 189.335 116.167,189.527 116.242,189.583 116.333 C 189.640 116.425,189.865 116.500,190.083 116.500 C 190.302 116.500,190.527 116.575,190.583 116.667 C 190.640 116.758,190.944 116.833,191.260 116.833 C 191.575 116.833,191.833 116.908,191.833 117.000 C 191.833 117.092,192.274 117.167,192.823 117.167 C 193.368 117.167,193.860 117.242,193.917 117.333 C 193.978 117.432,194.998 117.500,196.417 117.500 C 197.835 117.500,198.856 117.432,198.917 117.333 C 198.973 117.242,199.421 117.167,199.913 117.167 C 200.404 117.167,200.831 117.090,200.862 116.996 C 200.894 116.903,201.200 116.816,201.543 116.803 C 201.886 116.790,202.167 116.716,202.167 116.640 C 202.167 116.563,202.350 116.500,202.573 116.500 C 202.797 116.500,203.027 116.425,203.083 116.333 C 203.140 116.242,203.365 116.167,203.583 116.167 C 203.802 116.167,204.027 116.092,204.083 116.000 C 204.140 115.908,204.332 115.833,204.510 115.833 C 204.688 115.833,204.833 115.758,204.833 115.667 C 204.833 115.575,204.977 115.500,205.153 115.500 C 205.328 115.500,205.497 115.444,205.528 115.375 C 205.558 115.306,205.940 115.069,206.375 114.849 C 206.810 114.628,207.167 114.384,207.167 114.307 C 207.167 114.230,207.268 114.167,207.392 114.167 C 207.516 114.167,207.853 113.942,208.140 113.667 C 208.428 113.392,208.734 113.167,208.819 113.167 C 209.092 113.167,211.351 110.829,211.244 110.657 C 211.188 110.566,211.204 110.502,211.279 110.516 C 211.655 110.581,211.833 110.469,211.833 110.167 C 211.833 109.983,211.908 109.833,212.000 109.833 C 212.092 109.833,212.167 109.723,212.167 109.589 C 212.167 109.455,212.317 109.265,212.500 109.167 C 212.683 109.069,212.833 108.878,212.833 108.744 C 212.833 108.610,212.908 108.500,213.000 108.500 C 213.092 108.500,213.167 108.402,213.167 108.281 C 213.167 108.161,213.317 107.902,213.500 107.705 C 213.683 107.508,213.833 107.209,213.833 107.040 C 213.833 106.871,213.901 106.662,213.984 106.575 C 214.297 106.247,214.833 105.144,214.833 104.828 C 214.833 104.648,214.916 104.500,215.018 104.500 C 215.119 104.500,215.163 104.397,215.114 104.271 C 215.066 104.145,215.133 103.836,215.263 103.585 C 215.393 103.334,215.500 102.917,215.500 102.657 C 215.500 102.398,215.575 102.140,215.667 102.083 C 215.758 102.027,215.833 101.572,215.833 101.073 C 215.833 100.575,215.907 100.167,215.998 100.167 C 216.228 100.167,216.231 47.883,216.001 47.806 C 215.909 47.775,215.824 47.319,215.812 46.792 C 215.799 46.265,215.724 45.833,215.645 45.833 C 215.565 45.833,215.500 45.533,215.500 45.167 C 215.500 44.800,215.425 44.500,215.333 44.500 C 215.242 44.500,215.167 44.317,215.167 44.093 C 215.167 43.869,215.092 43.640,215.000 43.583 C 214.908 43.527,214.833 43.302,214.833 43.083 C 214.833 42.865,214.758 42.640,214.667 42.583 C 214.575 42.527,214.500 42.335,214.500 42.157 C 214.500 41.979,214.425 41.833,214.333 41.833 C 214.242 41.833,214.167 41.683,214.167 41.500 C 214.167 41.317,214.092 41.167,214.000 41.167 C 213.908 41.167,213.833 41.017,213.833 40.833 C 213.833 40.650,213.758 40.500,213.667 40.500 C 213.575 40.500,213.500 40.402,213.500 40.281 C 213.500 40.161,213.350 39.902,213.167 39.705 C 212.983 39.508,212.833 39.249,212.833 39.130 C 212.833 39.010,212.647 38.773,212.420 38.602 C 212.192 38.431,212.044 38.230,212.091 38.155 C 212.200 37.978,208.391 34.167,208.104 34.167 C 207.983 34.167,207.749 34.017,207.583 33.833 C 207.417 33.650,207.181 33.500,207.058 33.500 C 206.934 33.500,206.833 33.444,206.832 33.375 C 206.831 33.306,206.663 33.167,206.457 33.067 C 206.251 32.966,205.746 32.711,205.333 32.501 C 204.482 32.068,204.204 31.957,203.208 31.659 C 202.819 31.542,202.500 31.384,202.500 31.307 C 202.500 31.230,202.242 31.167,201.927 31.167 C 201.611 31.167,201.307 31.092,201.250 31.000 C 201.193 30.908,200.818 30.833,200.417 30.833 C 200.015 30.833,199.640 30.758,199.583 30.667 C 199.521 30.565,198.279 30.500,196.417 30.500 C 194.554 30.500,193.313 30.565,193.250 30.667 M198.139 44.349 C 198.169 44.432,198.338 44.500,198.514 44.500 C 198.690 44.500,198.833 44.575,198.833 44.667 C 198.833 44.758,198.983 44.833,199.167 44.833 C 199.350 44.833,199.500 44.900,199.500 44.981 C 199.500 45.062,199.766 45.255,200.092 45.410 C 200.418 45.564,200.747 45.854,200.825 46.054 C 200.902 46.253,201.160 46.642,201.399 46.917 C 201.638 47.192,201.833 47.552,201.833 47.718 C 201.833 47.884,201.895 47.982,201.969 47.936 C 202.044 47.889,202.123 48.204,202.145 48.634 C 202.167 49.065,202.256 49.488,202.343 49.575 C 202.565 49.799,202.555 98.667,202.333 98.667 C 202.242 98.667,202.167 98.929,202.167 99.250 C 202.167 99.571,202.092 99.833,202.000 99.833 C 201.908 99.833,201.833 99.983,201.833 100.167 C 201.833 100.350,201.758 100.500,201.667 100.500 C 201.575 100.500,201.500 100.618,201.500 100.763 C 201.500 100.908,201.200 101.323,200.833 101.686 C 200.467 102.049,200.167 102.402,200.167 102.469 C 200.167 102.669,199.603 103.079,199.246 103.139 C 199.065 103.170,198.845 103.263,198.758 103.347 C 198.671 103.431,198.432 103.500,198.227 103.500 C 198.021 103.500,197.807 103.575,197.750 103.667 C 197.634 103.855,195.620 103.897,195.438 103.716 C 195.374 103.651,195.119 103.572,194.873 103.539 C 194.627 103.506,194.329 103.399,194.212 103.302 C 194.096 103.205,193.998 103.191,193.995 103.271 C 193.992 103.351,193.913 103.285,193.820 103.125 C 193.727 102.965,193.541 102.833,193.408 102.833 C 193.275 102.833,193.167 102.758,193.167 102.667 C 193.167 102.575,193.052 102.500,192.911 102.500 C 192.771 102.500,192.607 102.369,192.547 102.208 C 192.486 102.048,192.226 101.718,191.969 101.475 C 191.711 101.232,191.500 100.921,191.500 100.784 C 191.500 100.648,191.389 100.493,191.253 100.441 C 191.112 100.387,191.048 100.235,191.104 100.090 C 191.158 99.949,191.119 99.833,191.018 99.833 C 190.914 99.833,190.833 99.543,190.833 99.167 C 190.833 98.800,190.758 98.500,190.667 98.500 C 190.556 98.500,190.500 90.226,190.500 74.010 C 190.500 57.863,190.557 49.485,190.667 49.417 C 190.758 49.360,190.833 49.100,190.833 48.839 C 190.833 48.380,191.455 46.974,191.708 46.861 C 191.777 46.831,191.833 46.707,191.833 46.586 C 191.833 46.303,192.967 45.167,193.249 45.167 C 193.367 45.167,193.509 45.049,193.564 44.906 C 193.619 44.763,193.735 44.689,193.821 44.742 C 193.907 44.795,194.024 44.763,194.082 44.669 C 194.139 44.576,194.332 44.500,194.510 44.500 C 194.688 44.500,194.833 44.429,194.833 44.343 C 194.833 44.034,198.025 44.039,198.139 44.349 " stroke="none" fill="#dc5c24" fill-rule="evenodd"></path><path id="path1" d="M371.833 26.293 C 371.833 26.363,371.985 26.515,372.170 26.630 C 372.483 26.826,372.492 26.816,372.297 26.504 C 372.087 26.168,371.833 26.053,371.833 26.293 M122.500 40.417 C 122.500 40.554,122.575 40.667,122.667 40.667 C 122.758 40.667,122.833 40.554,122.833 40.417 C 122.833 40.279,122.758 40.167,122.667 40.167 C 122.575 40.167,122.500 40.279,122.500 40.417 M124.500 48.750 C 124.500 48.887,124.575 49.000,124.667 49.000 C 124.758 49.000,124.833 48.887,124.833 48.750 C 124.833 48.612,124.758 48.500,124.667 48.500 C 124.575 48.500,124.500 48.612,124.500 48.750 M259.233 67.250 C 259.234 68.625,259.259 69.165,259.291 68.451 C 259.322 67.736,259.322 66.611,259.290 65.951 C 259.259 65.290,259.233 65.875,259.233 67.250 M202.167 98.417 C 202.167 98.554,202.242 98.667,202.333 98.667 C 202.425 98.667,202.500 98.554,202.500 98.417 C 202.500 98.279,202.425 98.167,202.333 98.167 C 202.242 98.167,202.167 98.279,202.167 98.417 " stroke="none" fill="#e05c24" fill-rule="evenodd"></path><path id="path2" d="M371.833 26.293 C 371.833 26.363,371.985 26.515,372.170 26.630 C 372.483 26.826,372.492 26.816,372.297 26.504 C 372.087 26.168,371.833 26.053,371.833 26.293 M122.500 40.417 C 122.500 40.554,122.575 40.667,122.667 40.667 C 122.758 40.667,122.833 40.554,122.833 40.417 C 122.833 40.279,122.758 40.167,122.667 40.167 C 122.575 40.167,122.500 40.279,122.500 40.417 M124.500 48.750 C 124.500 48.887,124.575 49.000,124.667 49.000 C 124.758 49.000,124.833 48.887,124.833 48.750 C 124.833 48.612,124.758 48.500,124.667 48.500 C 124.575 48.500,124.500 48.612,124.500 48.750 M259.233 67.250 C 259.234 68.625,259.259 69.165,259.291 68.451 C 259.322 67.736,259.322 66.611,259.290 65.951 C 259.259 65.290,259.233 65.875,259.233 67.250 M202.167 98.417 C 202.167 98.554,202.242 98.667,202.333 98.667 C 202.425 98.667,202.500 98.554,202.500 98.417 C 202.500 98.279,202.425 98.167,202.333 98.167 C 202.242 98.167,202.167 98.279,202.167 98.417 " stroke="none" fill="#e05c24" fill-rule="evenodd"></path><path id="path3" d="M371.833 26.293 C 371.833 26.363,371.985 26.515,372.170 26.630 C 372.483 26.826,372.492 26.816,372.297 26.504 C 372.087 26.168,371.833 26.053,371.833 26.293 M122.500 40.417 C 122.500 40.554,122.575 40.667,122.667 40.667 C 122.758 40.667,122.833 40.554,122.833 40.417 C 122.833 40.279,122.758 40.167,122.667 40.167 C 122.575 40.167,122.500 40.279,122.500 40.417 M124.500 48.750 C 124.500 48.887,124.575 49.000,124.667 49.000 C 124.758 49.000,124.833 48.887,124.833 48.750 C 124.833 48.612,124.758 48.500,124.667 48.500 C 124.575 48.500,124.500 48.612,124.500 48.750 M259.233 67.250 C 259.234 68.625,259.259 69.165,259.291 68.451 C 259.322 67.736,259.322 66.611,259.290 65.951 C 259.259 65.290,259.233 65.875,259.233 67.250 M202.167 98.417 C 202.167 98.554,202.242 98.667,202.333 98.667 C 202.425 98.667,202.500 98.554,202.500 98.417 C 202.500 98.279,202.425 98.167,202.333 98.167 C 202.242 98.167,202.167 98.279,202.167 98.417 " stroke="none" fill="#e05c24" fill-rule="evenodd"></path><path id="path4" d="M371.833 26.293 C 371.833 26.363,371.985 26.515,372.170 26.630 C 372.483 26.826,372.492 26.816,372.297 26.504 C 372.087 26.168,371.833 26.053,371.833 26.293 M122.500 40.417 C 122.500 40.554,122.575 40.667,122.667 40.667 C 122.758 40.667,122.833 40.554,122.833 40.417 C 122.833 40.279,122.758 40.167,122.667 40.167 C 122.575 40.167,122.500 40.279,122.500 40.417 M124.500 48.750 C 124.500 48.887,124.575 49.000,124.667 49.000 C 124.758 49.000,124.833 48.887,124.833 48.750 C 124.833 48.612,124.758 48.500,124.667 48.500 C 124.575 48.500,124.500 48.612,124.500 48.750 M259.233 67.250 C 259.234 68.625,259.259 69.165,259.291 68.451 C 259.322 67.736,259.322 66.611,259.290 65.951 C 259.259 65.290,259.233 65.875,259.233 67.250 M202.167 98.417 C 202.167 98.554,202.242 98.667,202.333 98.667 C 202.425 98.667,202.500 98.554,202.500 98.417 C 202.500 98.279,202.425 98.167,202.333 98.167 C 202.242 98.167,202.167 98.279,202.167 98.417 " stroke="none" fill="#e05c24" fill-rule="evenodd"></path></g></svg>